<svg width="107" height="52" viewBox="0 0 107 52" fill="none" xmlns="http://www.w3.org/2000/svg">
<path d="M86.949 16.8413C109.177 12.135 110.21 48.5636 91.9794 49.558C73.7485 50.5525 35.719 49.558 14.7047 49.558C-6.30956 49.558 0.36509 12.06 20.9244 16.8413M86.949 16.8413C82.8225 17.6835 78.4433 20.8836 78.4433 26.2734M86.949 16.8413C85.2553 6.14599 69.0767 -3.9673 51.822 6.22646M51.822 6.22646C56.5909 9.29799 60.0751 13.1321 60.0751 18.185M51.822 6.22646C41.8846 -0.173879 27.83 1.00888 20.9244 16.8413M60.0751 18.185C60.0751 29.1367 45.0004 30.0593 43.4847 25.6801M60.0751 18.185C67.9913 19.2798 75.2244 25.7643 74.6443 34.1054M74.6443 34.1054C86.0133 39.6598 95.1086 32.6867 95.1086 25.6801M74.6443 34.1054C74.3738 37.0479 68.2439 42.2705 62.6015 39.0703M20.9244 16.8413C24.5456 17.6835 28.7564 19.5362 31.8466 23.021M33.6219 32.6867C34.5754 29.9937 34.1462 26.2734 31.8466 23.021M33.6219 32.6867C40.4529 42.1021 52.9261 42.0216 57.7263 34.1054M33.6219 32.6867C29.926 40.3373 15.7493 37.7307 11.8027 35.6869M31.8466 23.021C31.2734 14.8914 39.8633 11.532 45.0004 13.5532" stroke="white" stroke-width="2.88877" stroke-linecap="round"/>
</svg>
