<svg width="600" height="490" viewBox="0 0 600 490" fill="none" xmlns="http://www.w3.org/2000/svg">
<path d="M121.764 388.171C121.807 388.516 121.85 388.86 121.899 389.209C122.501 393.843 123.482 398.421 124.832 402.898C124.931 403.246 125.037 403.597 125.145 403.941C128.516 414.693 133.873 424.732 140.944 433.547C143.762 437.052 146.844 440.34 150.165 443.383C154.752 447.584 157.036 454.722 157.036 454.722C158.271 461.902 161.591 474.006 149.556 487.479C149.49 487.528 149.432 487.581 149.366 487.631L148.854 488.802C148.672 488.657 148.486 488.503 148.304 488.358C148.198 488.274 148.095 488.184 147.989 488.1C147.919 488.042 147.849 487.984 147.783 487.936C147.76 487.917 147.736 487.897 147.72 487.881C147.653 487.833 147.597 487.781 147.537 487.736C146.495 486.876 145.458 486.008 144.424 485.13C144.418 485.127 144.418 485.127 144.414 485.118C136.557 478.413 129.197 471 123.207 462.716C123.027 462.467 122.84 462.215 122.666 461.953C119.987 458.204 117.622 454.245 115.594 450.115C114.491 447.85 113.505 445.531 112.639 443.167C110.413 437.055 109.172 430.635 108.962 424.141C108.544 411.196 112.312 398.263 121.086 388.881C121.311 388.641 121.532 388.407 121.764 388.171Z" fill="#F0F0F0"/>
<path d="M89.2254 469.242C72.763 457.447 61.6765 437.709 65.7486 418.965C80.1313 435.155 100.17 446.18 122.321 450.089C130.869 451.568 140.531 452.39 146.198 458.541C149.724 462.368 150.933 467.65 150.622 472.64C150.31 477.63 148.629 482.432 146.96 487.17L147.18 488.404C126.616 486.067 105.688 481.037 89.2254 469.242Z" fill="#F0F0F0"/>
<path d="M67.8304 424.097C73.7741 438.626 84.1446 450.913 97.469 459.213C100.306 461.05 103.414 462.429 106.68 463.299C109.889 464.043 113.239 463.915 116.382 462.926C119.33 462.064 122.247 460.84 125.353 460.71C126.945 460.666 128.527 460.96 129.997 461.571C131.467 462.182 132.791 463.097 133.883 464.256C136.678 467.073 138.294 470.726 139.75 474.353C141.366 478.38 142.982 482.589 146.275 485.572C146.674 485.933 146.09 486.531 145.691 486.17C139.962 480.981 139.332 472.654 134.829 466.634C132.727 463.824 129.767 461.631 126.147 461.538C122.982 461.457 119.974 462.717 116.996 463.616C113.944 464.625 110.692 464.871 107.524 464.333C104.224 463.633 101.067 462.376 98.1891 460.616C91.6463 456.758 85.7507 451.895 80.7184 446.206C74.9391 439.745 70.3077 432.342 67.0245 424.319C66.8215 423.822 67.6287 423.603 67.8304 424.097Z" fill="white"/>
<path d="M93.0213 456.793C91.3253 458.839 88.9571 460.216 86.3396 460.678C83.722 461.139 81.0257 460.656 78.732 459.313C78.2688 459.039 78.6718 458.307 79.1355 458.58C81.2691 459.835 83.7809 460.285 86.2174 459.85C88.654 459.416 90.8548 458.124 92.4228 456.209C92.764 455.793 93.3605 456.379 93.0213 456.793V456.793Z" fill="white"/>
<path d="M114.944 463.56C114.486 458.147 112.004 453.104 107.993 449.439C107.595 449.076 108.179 448.478 108.577 448.84C112.743 452.662 115.316 457.915 115.78 463.55C115.824 464.087 114.988 464.095 114.944 463.56Z" fill="white"/>
<path d="M75.9907 439.395C76.8119 438.74 77.4575 437.891 77.8696 436.925C78.2817 435.958 78.4474 434.905 78.3517 433.859C78.301 433.322 79.1371 433.315 79.1875 433.848C79.2878 435.004 79.1035 436.168 78.6505 437.236C78.1976 438.305 77.4899 439.246 76.5892 439.978C76.51 440.054 76.4049 440.098 76.2951 440.099C76.1854 440.1 76.0792 440.06 75.9982 439.986C75.9193 439.908 75.8743 439.802 75.8729 439.692C75.8715 439.581 75.9138 439.474 75.9907 439.395Z" fill="white"/>
<path d="M121.953 389.901C117.951 405.08 118.834 421.134 124.476 435.783C125.634 438.958 127.286 441.931 129.37 444.592C131.485 447.118 134.237 449.032 137.341 450.135C140.214 451.222 143.279 452.001 145.839 453.767C147.135 454.69 148.222 455.877 149.028 457.25C149.833 458.624 150.34 460.151 150.514 461.734C151.049 465.665 150.14 469.555 149.119 473.328C147.985 477.517 146.741 481.85 147.574 486.214C147.675 486.743 146.849 486.869 146.748 486.341C145.299 478.748 149.808 471.72 149.837 464.202C149.851 460.693 148.808 457.16 145.973 454.906C143.495 452.936 140.335 452.13 137.416 451.055C134.372 450.024 131.627 448.262 129.421 445.925C127.208 443.379 125.444 440.475 124.206 437.337C121.304 430.318 119.525 422.886 118.932 415.313C118.208 406.675 118.967 397.976 121.176 389.593C121.313 389.074 122.089 389.385 121.953 389.901Z" fill="white"/>
<path d="M122.382 431.173C119.795 431.786 117.075 431.46 114.708 430.252C112.34 429.045 110.478 427.035 109.455 424.582C109.25 424.085 110.013 423.742 110.218 424.24C111.167 426.526 112.901 428.398 115.108 429.518C117.315 430.638 119.85 430.932 122.255 430.347C122.778 430.22 122.901 431.047 122.382 431.173V431.173Z" fill="white"/>
<path d="M135.811 449.776C138.705 445.177 139.759 439.657 138.763 434.316C138.664 433.786 139.491 433.661 139.589 434.189C140.615 439.749 139.507 445.492 136.485 450.271C136.197 450.726 135.524 450.229 135.811 449.776Z" fill="white"/>
<path d="M571.909 470.843C588.62 459.227 600.358 438.987 597.114 419.053C582.272 435.398 562.067 446.029 540.074 449.064C531.587 450.205 522.029 450.599 516.191 456.8C512.558 460.657 511.15 466.16 511.252 471.428C511.354 476.696 512.814 481.834 514.264 486.904L513.996 488.193C534.363 486.735 555.198 482.459 571.909 470.843Z" fill="#F0F0F0"/>
<path d="M593.829 424.586C587.885 439.116 577.515 451.402 564.191 459.702C561.354 461.54 558.245 462.919 554.979 463.788C551.77 464.533 548.42 464.404 545.278 463.416C542.329 462.553 539.413 461.33 536.306 461.199C534.715 461.156 533.132 461.449 531.662 462.061C530.192 462.672 528.868 463.587 527.777 464.746C524.982 467.562 523.366 471.215 521.91 474.843C520.293 478.87 518.677 483.079 515.385 486.061C514.986 486.423 515.57 487.021 515.968 486.66C521.697 481.47 522.328 473.144 526.831 467.123C528.932 464.314 531.893 462.121 535.512 462.028C538.677 461.947 541.686 463.206 544.664 464.105C547.715 465.114 550.967 465.36 554.136 464.823C557.436 464.122 560.592 462.865 563.47 461.106C570.013 457.248 575.909 452.385 580.941 446.696C586.72 440.234 591.352 432.832 594.635 424.809C594.838 424.312 594.031 424.093 593.829 424.586H593.829Z" fill="white"/>
<path d="M568.638 457.282C570.334 459.329 572.702 460.706 575.32 461.167C577.937 461.629 580.634 461.145 582.927 459.802C583.391 459.529 582.988 458.796 582.524 459.07C580.39 460.324 577.879 460.775 575.442 460.34C573.006 459.905 570.805 458.614 569.237 456.699C568.895 456.283 568.299 456.869 568.638 457.282V457.282Z" fill="white"/>
<path d="M546.715 464.05C547.173 458.636 549.655 453.594 553.666 449.928C554.064 449.566 553.48 448.968 553.083 449.33C548.916 453.152 546.344 458.404 545.879 464.039C545.835 464.577 546.671 464.584 546.715 464.05Z" fill="white"/>
<path d="M585.669 439.884C584.848 439.229 584.202 438.38 583.79 437.414C583.378 436.448 583.212 435.394 583.308 434.348C583.358 433.812 582.522 433.805 582.472 434.338C582.372 435.494 582.556 436.657 583.009 437.726C583.462 438.794 584.17 439.736 585.07 440.468C585.149 440.544 585.255 440.587 585.364 440.588C585.474 440.59 585.58 440.549 585.661 440.475C585.74 440.398 585.785 440.292 585.787 440.181C585.788 440.071 585.746 439.964 585.669 439.884Z" fill="white"/>
<path d="M539.499 387.122C539.452 387.474 539.405 387.826 539.351 388.182C538.694 392.913 537.622 397.587 536.147 402.158C536.039 402.513 535.923 402.871 535.805 403.223C532.123 414.2 526.271 424.449 518.546 433.449C515.469 437.028 512.102 440.385 508.474 443.492C503.463 447.781 497.661 452.063 494.566 457.474C494.236 458.035 493.944 458.615 493.692 459.209C485.213 477.099 495.124 482.195 514.675 488.884C523.257 482.039 531.379 471.688 537.922 463.231C538.119 462.976 538.323 462.719 538.513 462.451C541.44 458.623 544.023 454.581 546.238 450.365C547.443 448.052 548.52 445.685 549.467 443.271C551.898 437.031 553.254 430.476 553.484 423.846C553.94 410.63 549.823 397.425 540.239 387.847C539.994 387.602 539.751 387.363 539.499 387.122Z" fill="#F0F0F0"/>
<path d="M539.706 390.39C543.708 405.569 542.825 421.624 537.184 436.273C536.025 439.448 534.373 442.42 532.289 445.081C530.175 447.608 527.423 449.522 524.319 450.625C521.445 451.711 518.38 452.49 515.821 454.256C514.524 455.18 513.437 456.367 512.632 457.74C511.826 459.113 511.32 460.641 511.146 462.223C510.61 466.155 511.519 470.045 512.54 473.817C513.674 478.006 514.918 482.339 514.085 486.704C513.984 487.232 514.81 487.358 514.911 486.83C516.361 479.237 511.851 472.209 511.822 464.691C511.808 461.183 512.852 457.649 515.686 455.396C518.164 453.426 521.324 452.62 524.243 451.545C527.287 450.513 530.032 448.752 532.238 446.415C534.451 443.869 536.215 440.965 537.454 437.827C540.355 430.807 542.135 423.375 542.727 415.803C543.451 407.164 542.693 398.465 540.483 390.082C540.347 389.564 539.57 389.875 539.706 390.39Z" fill="white"/>
<path d="M539.278 431.662C541.864 432.275 544.584 431.949 546.952 430.742C549.32 429.534 551.181 427.525 552.204 425.071C552.409 424.574 551.647 424.232 551.441 424.73C550.493 427.016 548.759 428.888 546.551 430.008C544.344 431.127 541.809 431.421 539.404 430.836C538.882 430.71 538.758 431.537 539.278 431.662V431.662Z" fill="white"/>
<path d="M525.848 450.265C522.955 445.667 521.901 440.146 522.896 434.805C522.995 434.276 522.169 434.15 522.07 434.679C521.044 440.239 522.153 445.981 525.175 450.76C525.463 451.215 526.135 450.718 525.848 450.265Z" fill="white"/>
<path d="M542.401 407.518C541.351 407.489 540.324 407.2 539.414 406.677C538.503 406.153 537.736 405.412 537.183 404.519C536.9 404.06 536.228 404.558 536.509 405.014C537.125 405.997 537.973 406.815 538.978 407.396C539.983 407.976 541.115 408.302 542.274 408.344C542.383 408.357 542.493 408.328 542.582 408.263C542.67 408.198 542.731 408.102 542.751 407.994C542.767 407.885 542.739 407.773 542.674 407.684C542.608 407.595 542.51 407.535 542.401 407.518H542.401Z" fill="white"/>
<path d="M514.02 488.081H139.03C135.168 488.077 131.466 486.541 128.735 483.81C126.005 481.08 124.469 477.378 124.464 473.516V192.006C124.469 188.144 126.005 184.442 128.735 181.711C131.466 178.981 135.168 177.445 139.03 177.44H514.02C517.882 177.445 521.584 178.981 524.314 181.711C527.045 184.442 528.581 188.144 528.585 192.006V473.516C528.581 477.377 527.045 481.08 524.314 483.81C521.584 486.541 517.882 488.077 514.02 488.081Z" fill="#E4E4E4"/>
<path d="M419.642 306.694H361.756C358.896 306.694 356.152 305.558 354.129 303.535C352.107 301.512 350.97 298.769 350.97 295.908C350.97 293.047 352.107 290.304 354.129 288.281C356.152 286.258 358.896 285.122 361.756 285.122H419.642C422.503 285.122 425.246 286.258 427.269 288.281C429.292 290.304 430.428 293.047 430.428 295.908C430.428 298.769 429.292 301.512 427.269 303.535C425.246 305.558 422.503 306.694 419.642 306.694Z" fill="white"/>
<path d="M368.948 336.176H355.285C354.236 336.176 353.23 335.76 352.489 335.018C351.747 334.276 351.33 333.27 351.33 332.222C351.33 331.173 351.747 330.167 352.489 329.425C353.23 328.683 354.236 328.267 355.285 328.267H368.948C369.996 328.267 371.002 328.683 371.744 329.425C372.486 330.167 372.902 331.173 372.902 332.222C372.902 333.27 372.486 334.276 371.744 335.018C371.002 335.76 369.996 336.176 368.948 336.176Z" fill="white"/>
<path d="M425.754 336.176H412.092C411.043 336.176 410.037 335.76 409.295 335.018C408.554 334.276 408.137 333.27 408.137 332.222C408.137 331.173 408.554 330.167 409.295 329.425C410.037 328.683 411.043 328.267 412.092 328.267H425.754C426.803 328.267 427.809 328.683 428.551 329.425C429.293 330.167 429.709 331.173 429.709 332.222C429.709 333.27 429.293 334.276 428.551 335.018C427.809 335.76 426.803 336.176 425.754 336.176Z" fill="white"/>
<path d="M396.992 336.176H383.329C382.28 336.176 381.274 335.76 380.533 335.018C379.791 334.276 379.374 333.27 379.374 332.222C379.374 331.173 379.791 330.167 380.533 329.425C381.274 328.683 382.28 328.267 383.329 328.267H396.992C398.04 328.267 399.046 328.683 399.788 329.425C400.53 330.167 400.946 331.173 400.946 332.222C400.946 333.27 400.53 334.276 399.788 335.018C399.046 335.76 398.04 336.176 396.992 336.176Z" fill="white"/>
<path d="M368.948 351.277H355.285C354.236 351.277 353.23 350.86 352.489 350.119C351.747 349.377 351.33 348.371 351.33 347.322C351.33 346.273 351.747 345.267 352.489 344.526C353.23 343.784 354.236 343.367 355.285 343.367H368.948C369.996 343.367 371.002 343.784 371.744 344.526C372.486 345.267 372.902 346.273 372.902 347.322C372.902 348.371 372.486 349.377 371.744 350.119C371.002 350.86 369.996 351.277 368.948 351.277Z" fill="white"/>
<path d="M425.754 351.277H412.092C411.043 351.277 410.037 350.86 409.295 350.119C408.554 349.377 408.137 348.371 408.137 347.322C408.137 346.273 408.554 345.267 409.295 344.526C410.037 343.784 411.043 343.367 412.092 343.367H425.754C426.803 343.367 427.809 343.784 428.551 344.526C429.293 345.267 429.709 346.273 429.709 347.322C429.709 348.371 429.293 349.377 428.551 350.119C427.809 350.86 426.803 351.277 425.754 351.277Z" fill="white"/>
<path d="M396.992 351.277H383.329C382.28 351.277 381.274 350.86 380.533 350.119C379.791 349.377 379.374 348.371 379.374 347.322C379.374 346.273 379.791 345.267 380.533 344.526C381.274 343.784 382.28 343.367 383.329 343.367H396.992C398.04 343.367 399.046 343.784 399.788 344.526C400.53 345.267 400.946 346.273 400.946 347.322C400.946 348.371 400.53 349.377 399.788 350.119C399.046 350.86 398.04 351.277 396.992 351.277Z" fill="white"/>
<path d="M368.948 366.377H355.285C354.236 366.377 353.23 365.961 352.489 365.219C351.747 364.477 351.33 363.471 351.33 362.422C351.33 361.374 351.747 360.368 352.489 359.626C353.23 358.884 354.236 358.468 355.285 358.468H368.948C369.996 358.468 371.002 358.884 371.744 359.626C372.486 360.368 372.902 361.374 372.902 362.422C372.902 363.471 372.486 364.477 371.744 365.219C371.002 365.961 369.996 366.377 368.948 366.377Z" fill="white"/>
<path d="M425.754 366.377H412.092C411.043 366.377 410.037 365.961 409.295 365.219C408.554 364.477 408.137 363.471 408.137 362.422C408.137 361.374 408.554 360.368 409.295 359.626C410.037 358.884 411.043 358.468 412.092 358.468H425.754C426.803 358.468 427.809 358.884 428.551 359.626C429.293 360.368 429.709 361.374 429.709 362.422C429.709 363.471 429.293 364.477 428.551 365.219C427.809 365.961 426.803 366.377 425.754 366.377Z" fill="white"/>
<path d="M396.992 366.377H383.329C382.28 366.377 381.274 365.961 380.533 365.219C379.791 364.477 379.374 363.471 379.374 362.422C379.374 361.374 379.791 360.368 380.533 359.626C381.274 358.884 382.28 358.468 383.329 358.468H396.992C398.04 358.468 399.046 358.884 399.788 359.626C400.53 360.368 400.946 361.374 400.946 362.422C400.946 363.471 400.53 364.477 399.788 365.219C399.046 365.961 398.04 366.377 396.992 366.377Z" fill="white"/>
<path d="M172.28 443.678C172.279 445.458 172.632 447.221 173.319 448.864C174.005 450.507 175.011 451.998 176.278 453.249H170.338C168.586 453.249 166.85 452.903 165.231 452.233C163.612 451.562 162.141 450.579 160.901 449.34C159.662 448.101 158.679 446.629 158.009 445.01C157.338 443.391 156.993 441.656 156.993 439.903V223.546C156.993 221.794 157.338 220.058 158.009 218.439C158.679 216.82 159.662 215.349 160.901 214.11C162.141 212.87 163.612 211.887 165.231 211.217C166.85 210.546 168.586 210.201 170.338 210.201H178.982C176.943 211.387 175.252 213.086 174.076 215.131C172.9 217.175 172.28 219.492 172.28 221.85L172.28 443.678Z" fill="#CACACA"/>
<path d="M170.842 269.676V341.447C171.324 341.288 171.806 341.137 172.28 340.994V270.33C171.798 270.107 171.324 269.891 170.842 269.676ZM170.842 269.676V341.447C171.324 341.288 171.806 341.137 172.28 340.994V270.33C171.798 270.107 171.324 269.891 170.842 269.676ZM170.842 269.676V341.447C171.324 341.288 171.806 341.137 172.28 340.994V270.33C171.798 270.107 171.324 269.891 170.842 269.676ZM170.842 274.918V357.619C171.324 357.504 171.806 357.396 172.28 357.288V275.328C171.798 275.184 171.317 275.047 170.842 274.918V274.918ZM170.842 274.918V357.619C171.324 357.504 171.806 357.396 172.28 357.288V275.328C171.798 275.184 171.317 275.047 170.842 274.918V274.918ZM170.842 274.918V357.619C171.324 357.504 171.806 357.396 172.28 357.288V275.328C171.798 275.184 171.317 275.047 170.842 274.918V274.918ZM170.842 274.918V357.619C171.324 357.504 171.806 357.396 172.28 357.288V275.328C171.798 275.184 171.317 275.047 170.842 274.918V274.918ZM170.842 274.918V358.367C171.324 358.251 171.798 358.136 172.28 358.029V275.328C171.798 275.184 171.317 275.047 170.842 274.918V274.918ZM484.539 206.922H185.77C181.813 206.928 178.02 208.503 175.222 211.301C172.423 214.1 170.849 217.893 170.842 221.85V443.678C170.849 447.634 172.424 451.427 175.222 454.223C178.02 457.02 181.814 458.594 185.77 458.599H484.539C488.495 458.594 492.287 457.02 495.084 454.223C497.881 451.426 499.455 447.633 499.46 443.678V221.85C499.456 217.893 497.884 214.099 495.086 211.3C492.289 208.502 488.496 206.927 484.539 206.922V206.922ZM498.022 443.678C498.018 447.252 496.596 450.68 494.068 453.207C491.541 455.735 488.114 457.157 484.539 457.16H185.77C182.195 457.157 178.766 455.736 176.238 453.208C173.709 450.681 172.285 447.253 172.28 443.678V221.85C172.285 218.274 173.708 214.846 176.237 212.317C178.766 209.788 182.194 208.365 185.77 208.36H484.539C488.115 208.364 491.543 209.787 494.071 212.316C496.598 214.845 498.019 218.274 498.022 221.85V443.678ZM170.842 274.918V356.892C171.324 356.777 171.798 356.662 172.28 356.547V275.328C171.798 275.184 171.317 275.047 170.842 274.918V274.918ZM170.842 274.918V357.619C171.324 357.504 171.806 357.396 172.28 357.288V275.328C171.798 275.184 171.317 275.047 170.842 274.918V274.918ZM170.842 274.918V357.619C171.324 357.504 171.806 357.396 172.28 357.288V275.328C171.798 275.184 171.317 275.047 170.842 274.918V274.918ZM170.842 274.918V357.619C171.324 357.504 171.806 357.396 172.28 357.288V275.328C171.798 275.184 171.317 275.047 170.842 274.918V274.918ZM170.842 269.676V341.447C171.324 341.288 171.806 341.137 172.28 340.994V270.33C171.798 270.107 171.324 269.891 170.842 269.676ZM170.842 269.676V341.447C171.324 341.288 171.806 341.137 172.28 340.994V270.33C171.798 270.107 171.324 269.891 170.842 269.676Z" fill="#2F2E41"/>
<path d="M368.948 381.478H355.285C354.236 381.478 353.23 381.062 352.489 380.32C351.747 379.578 351.33 378.572 351.33 377.523C351.33 376.474 351.747 375.468 352.489 374.727C353.23 373.985 354.236 373.568 355.285 373.568H368.948C369.996 373.568 371.002 373.985 371.744 374.727C372.486 375.468 372.902 376.474 372.902 377.523C372.902 378.572 372.486 379.578 371.744 380.32C371.002 381.062 369.996 381.478 368.948 381.478Z" fill="white"/>
<path d="M425.754 381.478H412.092C411.043 381.478 410.037 381.062 409.295 380.32C408.554 379.578 408.137 378.572 408.137 377.523C408.137 376.474 408.554 375.468 409.295 374.727C410.037 373.985 411.043 373.568 412.092 373.568H425.754C426.803 373.568 427.809 373.985 428.551 374.727C429.293 375.468 429.709 376.474 429.709 377.523C429.709 378.572 429.293 379.578 428.551 380.32C427.809 381.062 426.803 381.478 425.754 381.478Z" fill="white"/>
<path d="M396.992 381.478H383.329C382.28 381.478 381.274 381.062 380.533 380.32C379.791 379.578 379.374 378.572 379.374 377.523C379.374 376.474 379.791 375.468 380.533 374.727C381.274 373.985 382.28 373.568 383.329 373.568H396.992C398.04 373.568 399.046 373.985 399.788 374.727C400.53 375.468 400.946 376.474 400.946 377.523C400.946 378.572 400.53 379.578 399.788 380.32C399.046 381.062 398.04 381.478 396.992 381.478Z" fill="white"/>
<path d="M276.546 365.659C296.8 365.659 313.219 349.239 313.219 328.986C313.219 308.732 296.8 292.313 276.546 292.313C256.292 292.313 239.873 308.732 239.873 328.986C239.873 349.239 256.292 365.659 276.546 365.659Z" fill="#CACACA"/>
<path d="M276.546 373.928C273.686 373.924 270.945 372.787 268.923 370.765C266.901 368.743 265.763 366.001 265.76 363.142V294.829C265.759 293.412 266.037 292.009 266.578 290.699C267.12 289.389 267.914 288.199 268.916 287.197C269.918 286.194 271.107 285.399 272.416 284.856C273.726 284.314 275.129 284.034 276.546 284.034C277.963 284.034 279.366 284.314 280.676 284.856C281.985 285.399 283.174 286.194 284.176 287.197C285.178 288.199 285.972 289.389 286.514 290.699C287.055 292.009 287.333 293.412 287.332 294.829V363.142C287.329 366.001 286.191 368.743 284.169 370.765C282.147 372.787 279.406 373.924 276.546 373.928Z" fill="white"/>
<path d="M372.902 296.31C372.902 299.884 370.005 302.782 366.431 302.782C362.856 302.782 359.959 299.884 359.959 296.31C359.959 292.736 362.856 289.838 366.431 289.838C370.005 289.838 372.902 292.736 372.902 296.31Z" fill="#7C7C7C"/>
<path d="M421.25 296.67C421.25 300.244 418.353 303.141 414.779 303.141C411.204 303.141 408.307 300.244 408.307 296.67C408.307 293.095 411.204 290.198 414.779 290.198C418.353 290.198 421.25 293.095 421.25 296.67Z" fill="#7C7C7C"/>
<path d="M405.874 296.31C405.874 299.884 402.977 302.782 399.403 302.782C395.828 302.782 392.931 299.884 392.931 296.31C392.931 292.736 395.828 289.838 399.403 289.838C402.977 289.838 405.874 292.736 405.874 296.31Z" fill="#7C7C7C"/>
<path d="M389.611 295.951C389.611 299.525 386.713 302.422 383.139 302.422C379.565 302.422 376.668 299.525 376.668 295.951C376.668 292.376 379.565 289.479 383.139 289.479C386.713 289.479 389.611 292.376 389.611 295.951Z" fill="#7C7C7C"/>
<path d="M568.882 489.523H0.832594C0.641775 489.522 0.458964 489.446 0.32423 489.311C0.189496 489.176 0.113831 488.993 0.113831 488.802C0.113831 488.611 0.189496 488.428 0.32423 488.293C0.458964 488.158 0.641775 488.082 0.832594 488.081H568.882C569.073 488.081 569.256 488.157 569.392 488.292C569.527 488.428 569.603 488.611 569.603 488.802C569.603 488.993 569.527 489.177 569.392 489.312C569.256 489.447 569.073 489.523 568.882 489.523Z" fill="#CACACA"/>
<path d="M139.822 272.47C138.606 271.738 137.566 270.749 136.775 269.572C135.983 268.395 135.459 267.059 135.239 265.658C135.02 264.257 135.11 262.824 135.504 261.462C135.898 260.099 136.586 258.84 137.52 257.772L120.434 227.826L138.313 228.981L151.797 257.241C153.487 258.928 154.499 261.177 154.643 263.56C154.786 265.944 154.049 268.297 152.573 270.174C151.097 272.052 148.984 273.322 146.633 273.745C144.283 274.168 141.859 273.714 139.822 272.47Z" fill="#FFB6B6"/>
<path d="M8.29697 476.616H20.1262L25.7535 430.991L8.29553 430.993L8.29697 476.616Z" fill="#FFB6B6"/>
<path d="M5.28058 472.754L28.5749 472.753H28.5759C32.5129 472.753 36.2886 474.317 39.0725 477.101C41.8564 479.885 43.4206 483.661 43.4208 487.598V488.08L5.28123 488.082L5.28058 472.754Z" fill="#2F2E41"/>
<path d="M89.3418 476.616H101.17L106.797 430.991L89.339 430.993L89.3418 476.616Z" fill="#FFB6B6"/>
<path d="M86.324 472.754L109.618 472.753H109.619C113.556 472.753 117.332 474.317 120.116 477.101C122.9 479.885 124.464 483.661 124.464 487.598V488.08L86.3247 488.082L86.324 472.754Z" fill="#2F2E41"/>
<path d="M119.757 229.113C119.757 229.113 123.011 275.444 116.603 298.778C110.195 322.111 109.051 463.22 109.051 463.22H87.5725L68.9566 271.141L26.0399 463.898L5.58167 462.491L16.8013 235.353L119.757 229.113Z" fill="#2F2E41"/>
<path d="M25.677 72.9319L42.0967 60.95L69.6103 66.9409L77.058 84.6376L89.8915 91.0005C94.1112 93.0927 97.7598 96.1781 100.524 99.9917C103.288 103.805 105.085 108.233 105.76 112.894L124.094 239.501L16.8014 235.354L3.81229 86.2494C3.67661 84.6919 3.85476 83.1229 4.33619 81.6355C4.81761 80.148 5.59252 78.7722 6.61508 77.5896C7.63764 76.4069 8.88708 75.4414 10.2894 74.7501C11.6917 74.0589 13.2185 73.656 14.7793 73.5653L25.677 72.9319Z" fill="#3F3D56"/>
<path d="M96.6807 100.89L106.59 114.248L149.752 245.891L129.52 253.991L97.1242 192.649L96.6807 100.89Z" fill="#3F3D56"/>
<path d="M143.624 219.589C130.954 219.589 120.646 208.639 120.646 195.179C120.646 181.72 130.954 170.771 143.624 170.771C156.294 170.771 166.602 181.72 166.602 195.179C166.602 208.639 156.294 219.589 143.624 219.589ZM143.624 176.938C134.354 176.938 126.813 185.121 126.813 195.179C126.813 205.238 134.354 213.421 143.624 213.421C152.893 213.421 160.434 205.238 160.434 195.179C160.434 185.121 152.893 176.938 143.624 176.938Z" fill="#6C63FF"/>
<path d="M165.383 262.127H121.864C118.027 262.123 114.347 260.597 111.634 257.883C108.92 255.169 107.394 251.49 107.389 247.653V204.965C107.392 202.338 108.437 199.819 110.295 197.961C112.153 196.103 114.672 195.058 117.299 195.055H169.948C172.575 195.058 175.094 196.103 176.952 197.961C178.81 199.819 179.855 202.338 179.858 204.965V247.653C179.854 251.49 178.327 255.169 175.614 257.883C172.9 260.597 169.221 262.123 165.383 262.127Z" fill="#3F3D56"/>
<path d="M152.104 219.34C152.105 217.832 151.705 216.352 150.943 215.051C150.182 213.75 149.088 212.675 147.773 211.937C146.458 211.2 144.97 210.826 143.463 210.855C141.956 210.883 140.484 211.313 139.198 212.1C137.912 212.886 136.859 214.002 136.147 215.331C135.436 216.66 135.091 218.154 135.15 219.661C135.208 221.167 135.667 222.631 136.478 223.901C137.29 225.171 138.426 226.202 139.769 226.887V240.155H147.478V226.887C148.87 226.178 150.039 225.097 150.855 223.766C151.671 222.434 152.104 220.902 152.104 219.34Z" fill="white"/>
<path d="M60.7591 54.6944C73.994 54.6944 84.723 43.9654 84.723 30.7305C84.723 17.4956 73.994 6.7666 60.7591 6.7666C47.5242 6.7666 36.7952 17.4956 36.7952 30.7305C36.7952 43.9654 47.5242 54.6944 60.7591 54.6944Z" fill="#FFB9B9"/>
<path opacity="0.1" d="M8.51788 129.323L47.6236 183.713L91.3355 212.218L8.51788 129.323Z" fill="black"/>
<path d="M48.0593 48.054C46.3924 44.726 44.6776 41.1034 45.3147 37.4362C45.9519 33.769 50.1603 30.5736 53.4082 32.3917C54.7557 27.5217 60.7212 25.3904 65.7428 25.9526C70.7644 26.5148 75.3881 28.9369 80.3329 29.9768C85.2778 31.0167 91.283 30.1918 93.9555 25.9034L87.5609 25.7927L94.2198 18.0692L86.501 17.4918C89.1746 14.6062 88.4644 9.7038 85.876 6.74154C83.2877 3.77927 79.36 2.37766 75.5273 1.49134C67.8764 -0.272309 59.9458 -0.45458 52.2218 0.955649C48.58 1.51705 45.0711 2.7381 41.8675 4.55882C38.8507 6.39884 36.3581 8.98392 34.629 12.0656C32.7636 15.5424 31.7552 19.4143 31.6879 23.3593C31.574 28.6436 32.7882 33.8719 35.2192 38.5652C37.6503 43.2584 41.2204 47.2665 45.6024 50.2219" fill="#2F2E41"/>
<path d="M132.689 206.155C132.13 204.852 131.292 203.687 130.234 202.742C129.176 201.797 127.924 201.096 126.566 200.688C125.207 200.28 123.776 200.174 122.373 200.379C120.969 200.583 119.628 201.093 118.442 201.873L91.1036 180.866L89.8118 198.736L115.971 215.944C117.412 217.848 119.502 219.158 121.844 219.624C124.186 220.091 126.617 219.682 128.678 218.475C130.739 217.269 132.285 215.348 133.025 213.078C133.764 210.807 133.645 208.344 132.689 206.155V206.155Z" fill="#FFB6B6"/>
<path d="M22.5241 79.3809L13.528 75.1294C13.528 75.1294 -0.964524 79.206 6.07636 98.3701L48.6863 177.75L100.708 208.208L116.925 193.836L64.8663 152.646L22.5241 79.3809Z" fill="#3F3D56"/>
</svg>
